<svg id="visual" viewBox="0 0 900 600" width="900" height="600" xmlns="http://www.w3.org/2000/svg" xmlns:xlink="http://www.w3.org/1999/xlink" version="1.1"><rect x="0" y="0" width="900" height="600" fill="#2FA4FF"></rect><path d="M0 511L21.5 504.3C43 497.7 86 484.3 128.8 480.8C171.7 477.3 214.3 483.7 257.2 480.8C300 478 343 466 385.8 466.3C428.7 466.7 471.3 479.3 514.2 484.8C557 490.3 600 488.7 642.8 483.2C685.7 477.7 728.3 468.3 771.2 466.8C814 465.3 857 471.7 878.5 474.8L900 478L900 601L878.5 601C857 601 814 601 771.2 601C728.3 601 685.7 601 642.8 601C600 601 557 601 514.2 601C471.3 601 428.7 601 385.8 601C343 601 300 601 257.2 601C214.3 601 171.7 601 128.8 601C86 601 43 601 21.5 601L0 601Z" fill="#2f368a"></path><path d="M0 512L21.5 516C43 520 86 528 128.8 525.2C171.7 522.3 214.3 508.7 257.2 507.2C300 505.7 343 516.3 385.8 521.8C428.7 527.3 471.3 527.7 514.2 522.8C557 518 600 508 642.8 504C685.7 500 728.3 502 771.2 503C814 504 857 504 878.5 504L900 504L900 601L878.5 601C857 601 814 601 771.2 601C728.3 601 685.7 601 642.8 601C600 601 557 601 514.2 601C471.3 601 428.7 601 385.8 601C343 601 300 601 257.2 601C214.3 601 171.7 601 128.8 601C86 601 43 601 21.5 601L0 601Z" fill="#0e185f"></path><path d="M0 566L21.5 567.2C43 568.3 86 570.7 128.8 569.2C171.7 567.7 214.3 562.3 257.2 557.5C300 552.7 343 548.3 385.8 550.2C428.7 552 471.3 560 514.2 565C557 570 600 572 642.8 566C685.7 560 728.3 546 771.2 542.5C814 539 857 546 878.5 549.5L900 553L900 601L878.5 601C857 601 814 601 771.2 601C728.3 601 685.7 601 642.8 601C600 601 557 601 514.2 601C471.3 601 428.7 601 385.8 601C343 601 300 601 257.2 601C214.3 601 171.7 601 128.8 601C86 601 43 601 21.5 601L0 601Z" fill="#061547"></path></svg>